<?xml version="1.0" encoding="UTF-8"?>
<svg width="99px" height="99px" viewBox="0 0 99 99" version="1.1" xmlns="http://www.w3.org/2000/svg" xmlns:xlink="http://www.w3.org/1999/xlink" xmlns:sketch="http://www.bohemiancoding.com/sketch/ns">
    <!-- Generator: Sketch 3.5.2 (25235) - http://www.bohemiancoding.com/sketch -->
    <title>payments</title>
    <desc>Created with Sketch.</desc>
    <defs>
        <path id="path-1" d="M0.0105726872,0.020376933 L79.8414097,0.020376933 L79.8414097,90.7216495 L0.0105726872,90.7216495"></path>
    </defs>
    <g id="Page-1" stroke="none" stroke-width="1" fill="none" fill-rule="evenodd" sketch:type="MSPage">
        <g id="wallet-copy-3" sketch:type="MSLayerGroup" transform="translate(10.000000, 4.000000)">
            <g id="Group-8">
                <mask id="mask-2" sketch:name="Clip 2" fill="white">
                    <use xlink:href="#path-1"></use>
                </mask>
                <g id="Clip-2"></g>
                <path d="M5.63348018,35.9640464 C3.56193833,35.9640464 1.87753304,34.2699259 1.87753304,32.1858086 C1.87753304,30.1043492 3.56211454,28.4102287 5.63348018,28.4102287 C7.70484581,28.4102287 9.38942731,30.1043492 9.38942731,32.1858086 C9.38942731,34.2701031 7.70484581,35.9640464 5.63348018,35.9640464" id="Fill-1" fill="#3E4348" sketch:type="MSShapeGroup" mask="url(#mask-2)"></path>
                <path d="M5.63348018,30.2980187 L73.2281938,30.2980187 L73.2281938,26.5224388 L5.63348018,26.5224388 C2.5215859,26.5224388 0,29.0578608 0,32.1856314 L0,41.1566205 L3.75594714,41.1566205 L3.75594714,37.5279317 C4.34361233,37.735422 4.97409692,37.8518363 5.63330396,37.8518363 C8.08581498,37.8518363 10.1711013,36.2741302 10.9446696,34.0762564 L5.63348018,34.0762564 C4.5984141,34.0762564 3.75612335,33.2292848 3.75612335,32.1858086 C3.75612335,31.1449903 4.5984141,30.2980187 5.63348018,30.2980187" id="Fill-3" fill="#838483" sketch:type="MSShapeGroup" mask="url(#mask-2)"></path>
                <path d="M62.3797357,18.0277384 C65.9721586,20.1134504 67.2052863,24.7317494 65.1296916,28.3439594 L33.2111013,83.9398518 C31.1369163,87.552239 26.544141,88.7893847 22.9504846,86.7024323 L7.76810573,77.889143 L3.07207048,38.2450226 L22.8500441,3.79755155 C24.9242291,0.185341495 29.5170044,-1.05198131 33.1106608,1.03373067 L62.3797357,18.0277384" id="Fill-4" fill="#FACA59" sketch:type="MSShapeGroup" mask="url(#mask-2)"></path>
                <path d="M77.6407048,29.1244845 C80.574978,32.0724066 80.574978,36.8554929 77.6407048,39.8060728 L32.5009692,85.1966656 C29.5679295,88.1472455 24.8112775,88.1472455 21.8784141,85.1966656 L2.34678414,65.5579091 L2.90555066,45.527384 L43.1192952,5.09015786 C46.0509251,2.1408183 50.8075771,2.1408183 53.7418502,5.09015786 L77.6407048,29.1244845" id="Fill-5" fill="#F8F9FA" sketch:type="MSShapeGroup" mask="url(#mask-2)"></path>
                <path d="M64.3617621,15.7717461 L9.84229075,70.5982764 L1.87471366,62.5878383 L56.3954185,7.7611308 L64.3617621,15.7717461" id="Fill-6" fill="#3E4348" sketch:type="MSShapeGroup" mask="url(#mask-2)"></path>
                <path d="M75.1110132,86.9460696 C75.1110132,89.0330219 73.4290749,90.7216495 71.3534802,90.7216495 L3.75612335,90.7216495 C1.68193833,90.7216495 0.000176211454,89.0331991 0.000176211454,86.9460696 L0.000176211454,37.8518363 C0.000176211454,35.7647068 1.68211454,34.0762564 3.75612335,34.0762564 L71.3534802,34.0762564 C73.4290749,34.0762564 75.1110132,35.7647068 75.1110132,37.8518363 L75.1110132,86.9460696" id="Fill-7" fill="#B2B1B3" sketch:type="MSShapeGroup" mask="url(#mask-2)"></path>
            </g>
            <path d="M52.5776211,75.6164948 L76.9881938,75.6164948 C78.0260793,75.6164948 78.8653744,74.7723582 78.8653744,73.7288821 L78.8653744,51.0702642 C78.8653744,50.0266108 78.0259031,49.1826514 76.9881938,49.1826514 L52.5776211,49.1826514 C52.5776211,49.1826514 45.0629075,58.2310728 45.0629075,62.3996617 C45.0629075,66.5682506 52.5776211,75.6164948 52.5776211,75.6164948" id="Fill-9" fill="#D7D7D7" sketch:type="MSShapeGroup"></path>
            <path d="M63.8442291,62.3996617 C63.8442291,64.486614 62.162467,66.1752416 60.0870485,66.1752416 C58.0140969,66.1752416 56.3321586,64.4867912 56.3321586,62.3996617 C56.3321586,60.3125322 58.0140969,58.6240818 60.0870485,58.6240818 C62.162467,58.6240818 63.8442291,60.3125322 63.8442291,62.3996617" id="Fill-10" fill="#000000" sketch:type="MSShapeGroup"></path>
        </g>
    </g>
</svg>