<?xml version="1.0" encoding="UTF-8"?>
<svg width="99px" height="99px" viewBox="0 0 99 99" version="1.1" xmlns="http://www.w3.org/2000/svg" xmlns:xlink="http://www.w3.org/1999/xlink" xmlns:sketch="http://www.bohemiancoding.com/sketch/ns">
    <!-- Generator: Sketch 3.5.2 (25235) - http://www.bohemiancoding.com/sketch -->
    <title>payments</title>
    <desc>Created with Sketch.</desc>
    <defs></defs>
    <g id="Page-1" stroke="none" stroke-width="1" fill="none" fill-rule="evenodd" sketch:type="MSPage">
        <g id="bank-copy-6" sketch:type="MSLayerGroup" transform="translate(5.000000, 11.000000)">
            <path d="M74.3450638,17.2765909 L44.9172128,0.274659091 L15.4893617,17.2765909 L74.3450638,17.2765909 Z" id="Fill-1" fill="#F1B741" sketch:type="MSShapeGroup"></path>
            <path d="M85.1914894,28.0889773 L85.1914894,23.4564773 L72.8038723,23.4564773 L72.8038723,28.0889773 C72.8038723,28.9428409 73.4912128,29.6363636 74.3450638,29.6363636 C75.2008511,29.6363636 75.8959362,30.3298864 75.8959362,31.18375 L75.8959362,55.9129545 C75.8959362,56.7648864 75.2008511,57.4506818 74.3450638,57.4506818 C73.4912128,57.4506818 72.8038723,58.1461364 72.8038723,58.9980682 L72.8038723,63.6402273 L85.1914894,63.6402273 L85.1914894,58.9980682 C85.1914894,58.1461364 84.4964043,57.4506818 83.640617,57.4506818 C82.786766,57.4506818 82.0897447,56.7648864 82.0897447,55.9129545 L82.0897447,31.18375 C82.0897447,30.3298864 82.786766,29.6363636 83.640617,29.6363636 C84.4964043,29.6363636 85.1914894,28.9428409 85.1914894,28.0889773" id="Fill-2" fill="#D8D7D8" sketch:type="MSShapeGroup"></path>
            <path d="M68.1512553,28.0889773 L68.1512553,23.4564773 L55.7636383,23.4564773 L55.7636383,28.0889773 C55.7636383,28.9428409 56.4587234,29.6363636 57.3145106,29.6363636 C58.1683617,29.6363636 58.8557021,30.3298864 58.8557021,31.18375 L58.8557021,55.9129545 C58.8557021,56.7648864 58.1683617,57.4506818 57.3145106,57.4506818 C56.4587234,57.4506818 55.7636383,58.1461364 55.7636383,58.9980682 L55.7636383,63.6402273 L68.1512553,63.6402273 L68.1512553,58.9980682 C68.1512553,58.1461364 67.4561702,57.4506818 66.600383,57.4506818 C65.7465319,57.4506818 65.0591915,56.7648864 65.0591915,55.9129545 L65.0591915,31.18375 C65.0591915,30.3298864 65.7465319,29.6363636 66.600383,29.6363636 C67.4561702,29.6363636 68.1512553,28.9428409 68.1512553,28.0889773" id="Fill-3" fill="#D8D7D8" sketch:type="MSShapeGroup"></path>
            <path d="M51.1110213,28.0889773 L51.1110213,23.4564773 L38.7234043,23.4564773 L38.7234043,28.0889773 C38.7234043,28.9428409 39.4184894,29.6363636 40.2742766,29.6363636 C41.1281277,29.6363636 41.8251489,30.3298864 41.8251489,31.18375 L41.8251489,55.9129545 C41.8251489,56.7648864 41.1281277,57.4506818 40.2742766,57.4506818 C39.4184894,57.4506818 38.7234043,58.1461364 38.7234043,58.9980682 L38.7234043,63.6402273 L51.1110213,63.6402273 L51.1110213,58.9980682 C51.1110213,58.1461364 50.4236809,57.4506818 49.5698298,57.4506818 C48.7140426,57.4506818 48.0189574,56.7648864 48.0189574,55.9129545 L48.0189574,31.18375 C48.0189574,30.3298864 48.7140426,29.6363636 49.5698298,29.6363636 C50.4236809,29.6363636 51.1110213,28.9428409 51.1110213,28.0889773" id="Fill-4" fill="#D8D7D8" sketch:type="MSShapeGroup"></path>
            <path d="M34.0804681,28.0889773 L34.0804681,23.4564773 L21.6831702,23.4564773 L21.6831702,28.0889773 C21.6831702,28.9428409 22.3801915,29.6363636 23.2340426,29.6363636 C24.0878936,29.6363636 24.7849149,30.3298864 24.7849149,31.18375 L24.7849149,55.9129545 C24.7849149,56.7648864 24.0878936,57.4506818 23.2340426,57.4506818 C22.3801915,57.4506818 21.6831702,58.1461364 21.6831702,58.9980682 L21.6831702,63.6402273 L34.0804681,63.6402273 L34.0804681,58.9980682 C34.0804681,58.1461364 33.3834468,57.4506818 32.5295957,57.4506818 C31.6738085,57.4506818 30.9787234,56.7648864 30.9787234,55.9129545 L30.9787234,31.18375 C30.9787234,30.3298864 31.6738085,29.6363636 32.5295957,29.6363636 C33.3834468,29.6363636 34.0804681,28.9428409 34.0804681,28.0889773" id="Fill-5" fill="#D8D7D8" sketch:type="MSShapeGroup"></path>
            <path d="M17.040234,28.0889773 L17.040234,23.4564773 L4.64293617,23.4564773 L4.64293617,28.0889773 C4.64293617,28.9428409 5.33995745,29.6363636 6.19380851,29.6363636 C7.04959574,29.6363636 7.74468085,30.3298864 7.74468085,31.18375 L7.74468085,55.9129545 C7.74468085,56.7648864 7.04959574,57.4506818 6.19380851,57.4506818 C5.33995745,57.4506818 4.64293617,58.1461364 4.64293617,58.9980682 L4.64293617,63.6402273 L17.040234,63.6402273 L17.040234,58.9980682 C17.040234,58.1461364 16.3432128,57.4506818 15.4893617,57.4506818 C14.6355106,57.4506818 13.9384894,56.7648864 13.9384894,55.9129545 L13.9384894,31.18375 C13.9384894,30.3298864 14.6355106,29.6363636 15.4893617,29.6363636 C16.3432128,29.6363636 17.040234,28.9428409 17.040234,28.0889773" id="Fill-6" fill="#D8D7D8" sketch:type="MSShapeGroup"></path>
            <path d="M0,69.8201136 L89.8344255,69.8201136 L89.8344255,76 L0,76 L0,69.8201136 Z" id="Fill-7" fill="#D8D7D8" sketch:type="MSShapeGroup"></path>
            <path d="M1.55087234,63.6402273 L88.293234,63.6402273 L88.293234,69.8201136 L1.55087234,69.8201136 L1.55087234,63.6402273 Z" id="Fill-8" fill="#848385" sketch:type="MSShapeGroup"></path>
            <path d="M88.293234,23.4564773 L1.55087234,23.4564773 L4.64293617,17.2765909 L85.1914894,17.2765909 L88.293234,23.4564773 Z" id="Fill-9" fill="#848385" sketch:type="MSShapeGroup"></path>
            <path d="M18.5911064,8.00193182 L15.4893617,17.1626136 C15.4893617,17.2147727 15.5416383,17.2456818 15.5803617,17.2147727 L31.5460213,8.00193182 L18.5911064,8.00193182 Z" id="Fill-10" fill="#D8D7D8" sketch:type="MSShapeGroup"></path>
            <path d="M58.2961489,8.00193182 L74.256,17.2147727 C74.3005319,17.2456818 74.3528085,17.2147727 74.3528085,17.1626136 L71.253,8.00193182 L58.2961489,8.00193182 Z" id="Fill-11" fill="#D8D7D8" sketch:type="MSShapeGroup"></path>
        </g>
    </g>
</svg>