<?xml version="1.0" encoding="UTF-8"?>
<svg width="99px" height="99px" viewBox="0 0 99 99" version="1.1" xmlns="http://www.w3.org/2000/svg" xmlns:xlink="http://www.w3.org/1999/xlink" xmlns:sketch="http://www.bohemiancoding.com/sketch/ns">
    <!-- Generator: Sketch 3.5.2 (25235) - http://www.bohemiancoding.com/sketch -->
    <title>payments</title>
    <desc>Created with Sketch.</desc>
    <defs></defs>
    <g id="Page-1" stroke="none" stroke-width="1" fill="none" fill-rule="evenodd" sketch:type="MSPage">
        <g id="Group-4-Copy" sketch:type="MSLayerGroup" transform="translate(5.000000, 17.000000)">
            <path d="M88.9664228,5.04033429 L88.9664228,42.480448 C88.9664228,45.2639437 86.7298393,47.5207823 83.9703054,47.5207823 L24.1141792,47.5207823 C21.355102,47.5207823 19.1185185,45.2639437 19.1185185,42.480448 L19.1185185,5.04033429 C19.1185185,2.25776013 21.355102,0 24.1141792,0 L83.9703054,0 C86.7298393,0 88.9664228,2.25776013 88.9664228,5.04033429" id="Fill-1-Copy" stroke="#8F8F8F" fill="#B2B2B2" sketch:type="MSShapeGroup"></path>
            <path d="M88.9664228,21.4338088 L19.1185185,21.4338088 L19.1185185,11.9387755 L88.9664228,11.9387755 L88.9664228,21.4338088 Z" id="Fill-3-Copy" fill="#000000" sketch:type="MSShapeGroup"></path>
            <path d="M64.8517869,17.244898 L4.99566067,17.244898 C2.2365835,17.244898 0,19.5017366 0,22.2852323 L0,59.7244244 C0,62.5083809 2.2365835,64.7647587 4.99566067,64.7647587 L64.8517869,64.7647587 C67.6108641,64.7647587 69.8479043,62.5083809 69.8479043,59.7244244 L69.8479043,22.2852323 C69.8479043,19.5017366 67.6108641,17.244898 64.8517869,17.244898" id="Fill-5-Copy" stroke="#979797" fill="#D8D8D8" sketch:type="MSShapeGroup"></path>
            <path d="M21.2788919,26.1583495 L21.2788919,32.8053796 C21.2788919,32.9182676 21.2706708,33.0306949 21.2551422,33.139436 C21.0948316,34.2402092 20.1548911,35.0861781 19.018102,35.0861781 L6.87560475,35.0861781 C5.73881563,35.0861781 4.79887509,34.2402092 4.63856453,33.139436 C4.62303587,33.0306949 4.61481481,32.9182676 4.61481481,32.8053796 L4.61481481,26.1583495 C4.61481481,26.0454615 4.62303587,25.9330343 4.63856453,25.8242932 C4.79887509,24.7230592 5.73881563,23.877551 6.87560475,23.877551 L19.018102,23.877551 C20.1548911,23.877551 21.0948316,24.7230592 21.2551422,25.8242932 C21.2706708,25.9330343 21.2788919,26.0454615 21.2788919,26.1583495" id="Fill-6-Copy" fill="#FDCE5E" sketch:type="MSShapeGroup"></path>
            <path d="M15.5198544,28.0447125 C15.5198544,26.4757996 14.2592927,25.2040816 12.7041433,25.2040816 C11.1494505,25.2040816 9.88888889,26.4757996 9.88888889,28.0447125 C9.88888889,28.7759503 10.1647509,29.4403769 10.615082,29.9439956 C10.1647509,30.4476143 9.88888889,31.1120409 9.88888889,31.8432787 C9.88888889,33.4121916 11.1494505,34.6839096 12.7041433,34.6839096 C14.2592927,34.6839096 15.5198544,33.4121916 15.5198544,31.8432787 C15.5198544,31.1120409 15.2435356,30.4476143 14.7936612,29.9439956 C15.2435356,29.4403769 15.5198544,28.7759503 15.5198544,28.0447125" id="Fill-7-Copy" fill="#F2B741" sketch:type="MSShapeGroup"></path>
            <path d="M21.2788919,26.2014033 L21.2788919,27.1644071 L4.61481481,27.1644071 L4.61481481,26.2014033 C4.61481481,26.0885153 4.62303587,25.976088 4.63856453,25.8673469 L21.2551422,25.8673469 C21.2706708,25.976088 21.2788919,26.0885153 21.2788919,26.2014033" id="Fill-8-Copy" fill="#F2B741" sketch:type="MSShapeGroup"></path>
            <path d="M21.2788919,30.4807336 L4.61481481,30.4807336 L4.61481481,29.1836735 L21.2788919,29.1836735 L21.2788919,30.4807336 Z" id="Fill-9-Copy" fill="#F2B741" sketch:type="MSShapeGroup"></path>
            <path d="M21.2788919,31.8367347 L21.2788919,32.7997385 C21.2788919,32.9126265 21.2706708,33.0250537 21.2551422,33.1337948 L4.63856453,33.1337948 C4.62303587,33.0250537 4.61481481,32.9126265 4.61481481,32.7997385 L4.61481481,31.8367347 L21.2788919,31.8367347 Z" id="Fill-10-Copy" fill="#F2B741" sketch:type="MSShapeGroup"></path>
            <path d="M59.9321789,55.6966115 C59.9321789,58.2511058 57.8796556,60.3217944 55.3475709,60.3217944 C52.8154862,60.3217944 50.762963,58.2511058 50.762963,55.6966115 C50.762963,53.1421171 52.8154862,51.0714286 55.3475709,51.0714286 C57.8796556,51.0714286 59.9321789,53.1421171 59.9321789,55.6966115" id="Fill-11-Copy" fill="#A8A8A8" sketch:type="MSShapeGroup"></path>
            <path d="M65.2062529,55.6966115 C65.2062529,58.2511058 63.1537297,60.3217944 60.621645,60.3217944 C58.0895603,60.3217944 56.037037,58.2511058 56.037037,55.6966115 C56.037037,53.1421171 58.0895603,51.0714286 60.621645,51.0714286 C63.1537297,51.0714286 65.2062529,53.1421171 65.2062529,55.6966115" id="Fill-12-Copy" fill="#434343" sketch:type="MSShapeGroup"></path>
            <path d="M58.7766483,25.8673469 L44.8296296,25.8673469 L44.8296296,28.0108368 L58.7766483,28.0108368 L58.7766483,25.8673469 Z" id="Fill-13-Copy" fill="#848484" sketch:type="MSShapeGroup"></path>
            <path d="M11.4613781,50.4081633 L3.95555556,50.4081633 L3.95555556,52.5516531 L11.4613781,52.5516531 L11.4613781,50.4081633 Z" id="Fill-14-Copy" fill="#848483" sketch:type="MSShapeGroup"></path>
            <path d="M31.1211161,55.7142857 L3.95555556,55.7142857 L3.95555556,57.8577755 L31.1211161,57.8577755 L31.1211161,55.7142857 Z" id="Fill-15-Copy" fill="#848483" sketch:type="MSShapeGroup"></path>
            <path d="M21.350267,50.4081633 L13.8444444,50.4081633 L13.8444444,52.5516531 L21.350267,52.5516531 L21.350267,50.4081633 Z" id="Fill-16-Copy" fill="#848483" sketch:type="MSShapeGroup"></path>
            <path d="M30.5798967,50.4081633 L23.0740741,50.4081633 L23.0740741,52.5516531 L30.5798967,52.5516531 L30.5798967,50.4081633 Z" id="Fill-17-Copy" fill="#848483" sketch:type="MSShapeGroup"></path>
            <path d="M40.4687855,50.4081633 L32.962963,50.4081633 L32.962963,52.5516531 L40.4687855,52.5516531 L40.4687855,50.4081633 Z" id="Fill-18-Copy" fill="#848483" sketch:type="MSShapeGroup"></path>
            <path d="M64.1404295,30.5102041 L44.8296296,30.5102041 L44.8296296,32.6956237 L64.1404295,32.6956237 L64.1404295,30.5102041 Z" id="Fill-19-Copy" fill="#858584" sketch:type="MSShapeGroup"></path>
        </g>
    </g>
</svg>